<?xml version="1.0" encoding="utf-8"?>
<!-- Generator: Adobe Illustrator 17.0.0, SVG Export Plug-In . SVG Version: 6.00 Build 0)  -->
<!DOCTYPE svg PUBLIC "-//W3C//DTD SVG 1.1//EN" "http://www.w3.org/Graphics/SVG/1.1/DTD/svg11.dtd">
<svg version="1.1" id="Livello_1" xmlns="http://www.w3.org/2000/svg" xmlns:xlink="http://www.w3.org/1999/xlink" x="0px" y="0px"
	 width="218.16px" height="112.56px" viewBox="0 0 218.16 112.56" enable-background="new 0 0 218.16 112.56" xml:space="preserve">
<g>
	<g>
		<circle fill="#F80F00" cx="28.077" cy="56.28" r="25.506"/>
		<polygon fill="#FFFFFF" points="41.589,58.968 51.594,56.28 41.589,53.592 49.804,47.28 39.532,48.626 44.706,39.651 
			35.731,44.825 37.077,34.553 30.765,42.768 28.077,32.763 25.389,42.768 19.077,34.553 20.423,44.825 11.448,39.651 
			16.622,48.626 6.35,47.28 14.565,53.592 4.56,56.28 14.565,58.968 6.35,65.28 16.622,63.934 11.448,72.909 20.423,67.735 
			19.077,78.007 25.389,69.792 28.077,79.797 30.765,69.792 37.077,78.007 35.731,67.735 44.706,72.909 39.532,63.934 49.804,65.28 
					"/>
		<circle fill="#F80F00" cx="28.077" cy="56.28" r="13.263"/>
	</g>
	<g>
		<path d="M83.129,49.78h5.219l0.53,2h7.02l-6.435-19h-7.449l-6.435,19h7.02L83.129,49.78z M85.739,38.982l1.316,5.798h-2.631
			L85.739,38.982z"/>
		<path d="M209.154,32.78h-7.449l-6.435,19h7.02l0.53-2h5.219l0.53,2h7.02L209.154,32.78z M204.114,44.78l1.316-5.798l1.316,5.798
			H204.114z"/>
		<rect x="91.58" y="60.78" width="7" height="18"/>
		<polygon points="124.58,72.78 129.58,72.78 129.58,67.78 124.58,67.78 124.58,65.78 130.58,65.78 130.58,60.78 117.58,60.78 
			117.58,78.78 130.58,78.78 130.58,74.78 124.58,74.78 		"/>
		<polygon points="195.58,72.78 200.58,72.78 200.58,67.78 195.58,67.78 195.58,65.78 201.58,65.78 201.58,60.78 188.58,60.78 
			188.58,78.78 201.58,78.78 201.58,74.78 195.58,74.78 		"/>
		<polygon points="149.58,51.78 149.58,46.78 143.58,46.78 143.58,44.78 148.58,44.78 148.58,39.78 143.58,39.78 143.58,37.78 
			148.58,37.78 148.58,32.78 136.58,32.78 136.58,51.78 		"/>
		<polygon points="179.58,66.78 175.58,66.78 175.58,60.78 168.58,60.78 168.58,78.78 175.58,78.78 175.58,72.78 179.58,72.78 
			179.58,78.78 186.58,78.78 186.58,60.78 179.58,60.78 		"/>
		<path d="M193.58,32.78h-7v6.34c0,1.267,0.764,4.041,0.779,4.224c0.034,0.417-0.124-0.195-0.124-0.195l-5.888-10.369h-6.767v19h6
			v-6.542c0-1.243,0.065-2.817,0.003-3.093c-0.044-0.197,0.286-0.129,0.389,0.039l6.108,9.596h6.5V32.78z"/>
		<path d="M84.471,72.192c0,0,3.81-0.285,3.744-4.926c-0.039-6.571-6.883-6.486-9.243-6.486c-2.36,0-6.392,0-6.392,0v18h6v-5.235
			c0,0,0.293-0.328,0.319-0.27c0.079,0.18,3.115,5.505,3.115,5.505h7.722c0,0-3.602-5.114-3.976-5.679
			C85.387,72.536,84.471,72.192,84.471,72.192z M78.58,69.15v-3.042c1,0.01,2.701-0.049,2.711,1.579
			C81.3,69.316,79.58,69.16,78.58,69.15z"/>
		<path d="M104.58,45.777c0,0-0.012,0.056,0.013,0.114c0.079,0.18,2.81,5.889,2.81,5.889h7.722c0,0-3.602-5.498-3.976-6.063
			c-0.374-0.565-1.289-1.267-1.289-1.267s3.81-0.414,3.744-5.055c-0.039-6.571-6.883-6.615-9.243-6.615c-2.36,0-6.781,0-6.781,0v19
			h7V45.777z M104.58,38.34c1,0.01,2.701-0.049,2.711,1.58c0.01,1.628-1.711,1.472-2.711,1.462V38.34z"/>
		<path d="M145.662,72.163c0,0,3.81-0.271,3.744-4.912c-0.039-6.571-6.883-6.472-9.243-6.472s-6.583,0-6.583,0v18h6v-5.274
			c0,0,0.389-0.309,0.414-0.251c0.079,0.18,3.211,5.524,3.211,5.524h7.722c0,0-3.602-5.133-3.976-5.698
			C146.578,72.517,145.662,72.163,145.662,72.163z M139.58,69.112V66.07c2,0.01,2.701-0.049,2.711,1.579
			C142.3,69.277,140.58,69.121,139.58,69.112z"/>
		<path d="M122.847,32.78h-7.267v19h7.267c2.145,0,11.154,0.172,11.154-9.266S125.226,32.78,122.847,32.78z M122.58,46.218v-7.254
			c2,0,4.378,0.312,4.368,3.783C126.938,46.218,123.58,46.247,122.58,46.218z"/>
		<path d="M111.576,66.634c1.341,0,2.843,0.877,3.78,1.873l-0.189-6.958c-1.252-0.504-2.774-0.785-4.605-0.785
			c-5.299,0-9.594,4.252-9.594,9.497s4.295,9.496,9.594,9.496c1.816,0,3.315-0.251,4.544-0.704l0.249-6.935
			c-0.937,0.984-2.439,1.77-3.779,1.77c-2.143,0-3.881-1.624-3.881-3.627S109.433,66.634,111.576,66.634z"/>
		<path d="M162.822,66.634c1.341,0,2.843,0.877,3.78,1.873l-0.189-6.958c-1.252-0.504-2.774-0.785-4.605-0.785
			c-5.299,0-9.594,4.252-9.594,9.497s4.295,9.496,9.594,9.496c1.816,0,3.315-0.251,4.544-0.704l0.249-6.935
			c-0.937,0.984-2.439,1.77-3.779,1.77c-2.143,0-3.881-1.624-3.881-3.627S160.679,66.634,162.822,66.634z"/>
		<path d="M162.188,51.951c6.315,0,10.66-4.719,9.843-11.046l0.014-0.125h-0.026h-6.833h-3.607v4h3.363
			c-0.475,1-1.414,1.831-3.164,1.831c-1.729,0-3.13-1.737-3.13-3.999s1.401-4.047,3.13-4.047c1.611,0,2.563,0.477,3.078,1.394
			l6.385-2.31c-1.803-2.857-5.182-4.775-9.053-4.775c-6.23,0-10.442,4.272-10.442,9.539
			C151.746,47.679,155.314,51.951,162.188,51.951z"/>
		<path d="M74.818,45.34c0-6.113-7.956-4.867-7.781-6.406c0.117-1.024,1.463-1.024,1.463-1.024s1.843-0.059,3.89,1.433l1.813-4.826
			c0,0-2.954-1.579-5.645-1.579c-3.305,0-8.261,1.931-8.219,6.698c0.058,6.611,7.839,4.153,7.664,6.406
			c-0.082,1.051-1.755,1.082-1.755,1.082s-1.93,0.029-4.475-2.018l-2.048,5.236c0,0,2.954,1.697,7.049,1.697
			C70.87,52.039,74.818,50.021,74.818,45.34z"/>
	</g>
</g>
</svg>
