<?xml version="1.0" encoding="utf-8"?>
<!-- Generator: Adobe Illustrator 17.0.0, SVG Export Plug-In . SVG Version: 6.00 Build 0)  -->
<!DOCTYPE svg PUBLIC "-//W3C//DTD SVG 1.1//EN" "http://www.w3.org/Graphics/SVG/1.1/DTD/svg11.dtd">
<svg version="1.1" id="Livello_1" xmlns="http://www.w3.org/2000/svg" xmlns:xlink="http://www.w3.org/1999/xlink" x="0px" y="0px"
	 width="218.16px" height="112.56px" viewBox="0 0 218.16 112.56" enable-background="new 0 0 218.16 112.56" xml:space="preserve">
<g>
	<path fill="#164194" d="M74.093,51.305h5.93c3.075,0,5.295,2.001,5.295,5.173c0,3.197-2.22,5.248-5.295,5.248h-4.246v6.734h-1.684
		V51.305z M79.804,60.213c2.293,0,3.782-1.391,3.782-3.734c0-2.318-1.489-3.66-3.758-3.66h-4.051v7.394H79.804z"/>
	<path fill="#164194" d="M96.248,51.013c4.856,0,8.737,3.831,8.737,8.761c0,5.027-3.881,8.98-8.737,8.98
		c-4.856,0-8.737-3.953-8.737-8.98C87.511,54.844,91.392,51.013,96.248,51.013 M96.248,67.192c3.856,0,6.979-3.222,6.979-7.418
		c0-4.101-3.123-7.2-6.979-7.2c-3.88,0-6.98,3.099-6.98,7.2C89.268,63.97,92.368,67.192,96.248,67.192"/>
	<path fill="#164194" d="M108.786,51.305h5.076c1.757,0,2.538,0.171,3.221,0.464c1.612,0.707,2.587,2.343,2.587,4.417
		c0,2.318-1.317,4.1-3.245,4.638v0.049c0,0,0.172,0.22,0.44,0.683l3.733,6.906h-1.927l-3.88-7.224h-4.32v7.224h-1.684V51.305z
		 M114.545,59.725c2.074,0,3.392-1.342,3.392-3.49c0-1.415-0.561-2.465-1.561-3.001c-0.513-0.269-1.123-0.415-2.44-0.415h-3.466
		v6.907H114.545z"/>
	<polygon fill="#164194" points="130.67,51.305 139.699,51.305 139.699,52.818 132.354,52.818 132.354,59.261 138.649,59.261 
		138.649,60.774 132.354,60.774 132.354,68.461 130.67,68.461 	"/>
	<polygon fill="#164194" points="143.21,51.305 152.873,51.305 152.873,52.818 144.893,52.818 144.893,59.066 151.409,59.066 
		151.409,60.579 144.893,60.579 144.893,66.949 153.313,66.949 153.313,68.461 143.21,68.461 	"/>
	<path fill="#164194" d="M156.872,65.264c0,0,1.781,1.879,4.49,1.879c1.879,0,3.417-1.123,3.417-2.978
		c0-4.318-8.565-3.221-8.565-8.541c0-2.465,2.172-4.613,5.345-4.613c2.977,0,4.587,1.659,4.587,1.659l-0.829,1.416
		c0,0-1.514-1.464-3.758-1.464c-2.197,0-3.613,1.44-3.613,2.953c0,4.075,8.567,2.904,8.567,8.541c0,2.563-1.977,4.637-5.198,4.637
		c-3.514,0-5.443-2.196-5.443-2.196L156.872,65.264z"/>
	<path fill="#164194" d="M170.266,51.305h5.075c1.757,0,2.539,0.171,3.221,0.464c1.612,0.707,2.587,2.343,2.587,4.417
		c0,2.318-1.317,4.1-3.245,4.638v0.049c0,0,0.172,0.22,0.44,0.683l3.733,6.906h-1.927l-3.88-7.224h-4.32v7.224h-1.683V51.305z
		 M176.025,59.725c2.074,0,3.392-1.342,3.392-3.49c0-1.415-0.561-2.465-1.561-3.001c-0.513-0.269-1.123-0.415-2.44-0.415h-3.466
		v6.907H176.025z"/>
	<path fill="#164194" d="M67.294,78.314c0,0,0.789,0.799,1.894,0.799c0.694,0,1.284-0.389,1.284-1.093
		c0-1.61-3.598-1.263-3.598-3.546c0-1.157,0.999-2.073,2.399-2.073c1.378,0,2.104,0.748,2.104,0.748l-0.474,0.862
		c0,0-0.684-0.642-1.63-0.642c-0.789,0-1.347,0.495-1.347,1.084c0,1.536,3.599,1.126,3.599,3.535c0,1.147-0.884,2.094-2.357,2.094
		c-1.578,0-2.462-0.978-2.462-0.978L67.294,78.314z"/>
	<path fill="#164194" d="M76.944,77.819h-2.798l-0.737,2.136h-1.073l2.672-7.427h1.095l2.672,7.427h-1.083L76.944,77.819z
		 M75.545,73.548c0,0-0.168,0.673-0.294,1.052l-0.831,2.357h2.251L75.85,74.6c-0.126-0.379-0.284-1.052-0.284-1.052H75.545z"/>
	<path fill="#164194" d="M80.115,72.527h2.272c0.779,0,1.104,0.063,1.388,0.167c0.758,0.285,1.252,1.031,1.252,2.01
		c0,0.947-0.526,1.746-1.336,2.009v0.021c0,0,0.084,0.095,0.221,0.338l1.578,2.882h-1.179l-1.567-2.956h-1.589v2.956h-1.041V72.527z
		 M82.65,76.094c0.81,0,1.315-0.516,1.315-1.347c0-0.548-0.211-0.936-0.59-1.146c-0.2-0.105-0.442-0.169-1.02-0.169h-1.2v2.662
		H82.65z"/>
	<path fill="#164194" d="M87.103,72.527h2.462c2.272,0,3.767,1.357,3.767,3.702c0,2.358-1.494,3.725-3.767,3.725h-2.462V72.527z
		 M89.492,79.05c1.672,0,2.767-0.989,2.767-2.82c0-1.82-1.105-2.798-2.767-2.798h-1.347v5.618H89.492z"/>
	<polygon fill="#164194" points="95.135,72.527 99.449,72.527 99.449,73.432 96.177,73.432 96.177,75.756 98.838,75.756 
		98.838,76.661 96.177,76.661 96.177,79.05 99.627,79.05 99.627,79.954 95.135,79.954 	"/>
	<path fill="#164194" d="M104.701,72.4c1.778,0,2.704,0.895,2.704,0.895l-0.526,0.779c0,0-0.831-0.726-2.094-0.726
		c-1.746,0-2.798,1.272-2.798,2.861c0,1.725,1.178,2.914,2.735,2.914c1.284,0,2.104-0.926,2.104-0.926v-1.072h-1.21V76.22h2.156
		v3.735h-0.914v-0.463c0-0.158,0.01-0.315,0.01-0.315h-0.021c0,0-0.81,0.905-2.284,0.905c-1.999,0-3.65-1.578-3.65-3.851
		C100.914,74.084,102.534,72.4,104.701,72.4"/>
	<path fill="#164194" d="M109.65,72.527h1.03l3.304,4.828c0.273,0.401,0.621,1.074,0.621,1.074h0.021c0,0-0.074-0.663-0.074-1.074
		v-4.828h1.042v7.427h-1.02l-3.315-4.818c-0.274-0.411-0.62-1.084-0.62-1.084h-0.022c0,0,0.075,0.663,0.075,1.084v4.818h-1.042
		V72.527z"/>
	<path fill="#164194" d="M121.543,77.819h-2.799l-0.737,2.136h-1.072l2.672-7.427h1.093l2.672,7.427h-1.083L121.543,77.819z
		 M120.143,73.548c0,0-0.168,0.673-0.295,1.052l-0.831,2.357h2.251l-0.821-2.357c-0.125-0.379-0.283-1.052-0.283-1.052H120.143z"/>
	<path fill="#164194" d="M127.228,79.386c0-2.651,3.64-3.029,3.64-4.776c0-0.736-0.557-1.231-1.335-1.231
		c-0.979,0-1.505,0.947-1.505,0.947l-0.768-0.515c0,0,0.673-1.411,2.346-1.411c1.368,0,2.346,0.853,2.346,2.137
		c0,2.441-3.545,2.819-3.566,4.513h3.682v0.904h-4.787C127.249,79.755,127.228,79.565,127.228,79.386"/>
	<path fill="#164194" d="M133.574,76.23c0-2.135,0.642-3.83,2.62-3.83c1.988,0,2.63,1.695,2.63,3.83c0,2.147-0.642,3.851-2.63,3.851
		C134.216,80.081,133.574,78.377,133.574,76.23 M137.762,76.23c0-1.609-0.348-2.871-1.568-2.871c-1.21,0-1.557,1.262-1.557,2.871
		c0,1.621,0.347,2.893,1.557,2.893C137.414,79.123,137.762,77.851,137.762,76.23"/>
	<path fill="#164194" d="M140.321,79.05h1.642v-4.798c0-0.231,0.01-0.463,0.01-0.463h-0.021c0,0-0.085,0.168-0.358,0.432
		l-0.694,0.683l-0.632-0.652l1.779-1.725h0.926v6.523h1.62v0.905h-4.272V79.05z"/>
	<path fill="#164194" d="M145.448,77.314l3.43-4.787h1.189v4.555h1.01v0.884h-1.01v1.988h-1.02v-1.988h-3.599V77.314z
		 M149.047,77.082v-2.704c0-0.347,0.042-0.737,0.042-0.737h-0.022c0,0-0.168,0.347-0.368,0.611l-2.104,2.809v0.022H149.047z"/>
	<rect x="152.689" y="76.504" fill="#164194" width="3.072" height="0.904"/>
	<path fill="#164194" d="M157.531,79.386c0-2.651,3.64-3.029,3.64-4.776c0-0.736-0.557-1.231-1.335-1.231
		c-0.978,0-1.505,0.947-1.505,0.947l-0.767-0.515c0,0,0.673-1.411,2.345-1.411c1.368,0,2.346,0.853,2.346,2.137
		c0,2.441-3.545,2.819-3.566,4.513h3.682v0.904h-4.787C157.553,79.755,157.531,79.565,157.531,79.386"/>
	<path fill="#164194" d="M163.878,76.23c0-2.135,0.642-3.83,2.619-3.83c1.989,0,2.63,1.695,2.63,3.83
		c0,2.147-0.642,3.851-2.63,3.851C164.52,80.081,163.878,78.377,163.878,76.23 M168.065,76.23c0-1.609-0.348-2.871-1.568-2.871
		c-1.21,0-1.557,1.262-1.557,2.871c0,1.621,0.347,2.893,1.557,2.893C167.718,79.123,168.065,77.851,168.065,76.23"/>
	<path fill="#164194" d="M170.615,79.386c0-2.651,3.64-3.029,3.64-4.776c0-0.736-0.557-1.231-1.335-1.231
		c-0.979,0-1.505,0.947-1.505,0.947l-0.768-0.515c0,0,0.673-1.411,2.346-1.411c1.368,0,2.346,0.853,2.346,2.137
		c0,2.441-3.545,2.819-3.566,4.513h3.682v0.904h-4.787C170.636,79.755,170.615,79.565,170.615,79.386"/>
	<path fill="#164194" d="M176.962,76.23c0-2.135,0.642-3.83,2.62-3.83c1.988,0,2.63,1.695,2.63,3.83c0,2.147-0.642,3.851-2.63,3.851
		C177.604,80.081,176.962,78.377,176.962,76.23 M181.149,76.23c0-1.609-0.348-2.871-1.568-2.871c-1.21,0-1.557,1.262-1.557,2.871
		c0,1.621,0.347,2.893,1.557,2.893C180.801,79.123,181.149,77.851,181.149,76.23"/>
	<path fill="#FFCC00" d="M42.93,43.021c-0.211,0-0.425-0.032-0.637-0.099c-1.112-0.351-1.729-1.537-1.377-2.648L46.7,21.965
		c0.351-1.112,1.54-1.727,2.649-1.377c1.112,0.351,1.729,1.537,1.378,2.649l-5.783,18.309C44.658,42.446,43.827,43.021,42.93,43.021
		"/>
	<path fill="#009640" d="M44.768,66.245c-0.211,0-0.425-0.032-0.637-0.099c-1.112-0.352-1.729-1.537-1.377-2.649l15.021-47.551
		c0.351-1.112,1.54-1.728,2.649-1.377c1.112,0.351,1.729,1.537,1.377,2.649L46.781,64.77C46.496,65.67,45.664,66.245,44.768,66.245"
		/>
	<path fill="#164194" d="M43.563,99.105c-0.211,0-0.426-0.032-0.637-0.098c-1.112-0.352-1.729-1.537-1.377-2.65L70.666,4.181
		c0.352-1.112,1.54-1.73,2.649-1.377c1.112,0.35,1.729,1.537,1.377,2.648L45.575,97.63C45.291,98.53,44.459,99.105,43.563,99.105"/>
	<path fill="#E30613" d="M49.341,109.855c-0.211,0-0.425-0.032-0.637-0.099c-1.112-0.352-1.729-1.537-1.377-2.649L78.043,9.87
		c0.352-1.112,1.541-1.729,2.649-1.378c1.112,0.352,1.729,1.537,1.377,2.649l-30.715,97.238
		C51.069,109.279,50.238,109.855,49.341,109.855"/>
	<path fill="#E30613" d="M38.061,29.317c-0.211,0-0.425-0.031-0.637-0.098c-1.112-0.352-1.729-1.537-1.377-2.649l1.454-4.605
		c0.352-1.112,1.541-1.728,2.649-1.378c1.112,0.351,1.729,1.537,1.377,2.649l-1.454,4.605
		C39.789,28.742,38.957,29.317,38.061,29.317"/>
	<path fill="#009640" d="M88.166,44.998c-0.212,0-0.427-0.032-0.639-0.099c-1.111-0.353-1.726-1.54-1.374-2.651l2.172-6.846
		c0.353-1.111,1.54-1.726,2.651-1.374c1.111,0.353,1.726,1.54,1.374,2.651l-2.172,6.846C89.893,44.424,89.062,44.998,88.166,44.998"
		/>
	<path fill="#009640" d="M71.083,99.105c-0.21,0-0.424-0.032-0.635-0.098c-1.112-0.349-1.73-1.535-1.38-2.648l3.027-9.612
		c0.35-1.112,1.537-1.731,2.648-1.379c1.112,0.349,1.73,1.535,1.379,2.647l-3.027,9.613C72.813,98.529,71.981,99.105,71.083,99.105"
		/>
	<path fill="#164194" d="M80.259,99.105c-0.211,0-0.424-0.032-0.635-0.098c-1.112-0.349-1.73-1.535-1.38-2.648l3.027-9.612
		c0.35-1.112,1.536-1.731,2.648-1.379c1.112,0.349,1.73,1.535,1.38,2.647l-3.027,9.613C81.988,98.529,81.156,99.105,80.259,99.105"
		/>
	<path fill="#FFCC00" d="M58.482,109.855c-0.211,0-0.425-0.032-0.637-0.099c-1.112-0.351-1.729-1.537-1.377-2.649l6.43-20.362
		c0.351-1.112,1.537-1.726,2.649-1.378c1.112,0.352,1.729,1.538,1.378,2.649l-6.43,20.362
		C60.211,109.279,59.379,109.855,58.482,109.855"/>
	<path fill="#FFCC00" d="M78.986,44.998c-0.212,0-0.427-0.032-0.638-0.099c-1.112-0.352-1.727-1.539-1.375-2.65l5.862-18.504
		c0.352-1.112,1.54-1.728,2.65-1.375c1.112,0.352,1.727,1.538,1.375,2.65l-5.862,18.504C80.713,44.424,79.881,44.998,78.986,44.998"
		/>
</g>
</svg>
