<?xml version="1.0" encoding="utf-8"?>
<!-- Generator: Adobe Illustrator 18.1.1, SVG Export Plug-In . SVG Version: 6.00 Build 0)  -->
<svg version="1.1" id="Livello_1" xmlns="http://www.w3.org/2000/svg" xmlns:xlink="http://www.w3.org/1999/xlink" x="0px" y="0px"
	 viewBox="0 0 158 32" enable-background="new 0 0 158 32" xml:space="preserve">
<g id="Rettangolo_4">
	<g>
		<path d="M45.1,11.9L45.1,11.9L45.1,11.9l0.1,0h7.5c1.4,0,2.5-1.1,2.5-2.5s-1.1-2.5-2.5-2.5h-7.5h0h-0.1v0c-1.3,0-2.4,1.1-2.4,2.4
			h0v0.1h0C42.7,10.8,43.8,11.8,45.1,11.9z M45.2,19.4h11.2c1.4,0,2.5-1.1,2.5-2.5s-1.1-2.5-2.5-2.5H45.2c-1.4,0-2.5,1.1-2.5,2.5
			S43.8,19.4,45.2,19.4z M60.2,21.9h-15c-1.4,0-2.5,1.1-2.5,2.5s1.1,2.5,2.5,2.5h15c1.4,0,2.5-1.1,2.5-2.5S61.6,21.9,60.2,21.9z
			 M92.7,6.9h-7.5c-1.4,0-2.5,1.1-2.5,2.5s1.1,2.5,2.5,2.5h7.5c1.4,0,2.5-1.1,2.5-2.5S94.1,6.9,92.7,6.9z M92.7,21.9h-15
			c-1.4,0-2.5,1.1-2.5,2.5s1.1,2.5,2.5,2.5h15c1.4,0,2.5-1.1,2.5-2.5S94.1,21.9,92.7,21.9z M92.7,14.4H81.4c-1.4,0-2.5,1.1-2.5,2.5
			s1.1,2.5,2.5,2.5h11.2c1.4,0,2.5-1.1,2.5-2.5S94.1,14.4,92.7,14.4z M115.2,6.9c-1.4,0-2.5,1.1-2.5,2.5v9L102,7.6l0,0
			c-0.5-0.5-1.1-0.7-1.8-0.7c-1.4,0-2.5,1.1-2.5,2.5v15c0,1.4,1.1,2.5,2.5,2.5c1.4,0,2.5-1.1,2.5-2.5v-9l10.7,10.7l0,0
			c0.5,0.5,1.1,0.8,1.8,0.8c1.4,0,2.5-1.1,2.5-2.5v-15C117.7,8,116.6,6.9,115.2,6.9z M157.1,23.1l-7.4-14.8l0,0
			c-0.4-0.8-1.3-1.4-2.2-1.4c-1,0-1.8,0.6-2.2,1.4l0,0l0,0.1c0,0,0,0.1,0,0.1l-7.4,14.8l0,0c-0.2,0.3-0.3,0.7-0.3,1.1
			c0,1.4,1.1,2.5,2.5,2.5c1.1,0,2-0.7,2.3-1.6l5.2-10.3l5.3,10.5l0,0c0.4,0.8,1.3,1.4,2.2,1.4c1.4,0,2.5-1.1,2.5-2.5
			C157.5,23.9,157.4,23.5,157.1,23.1z M140.2,9.4c0-1.4-1.1-2.5-2.5-2.5h-15c-1.4,0-2.5,1.1-2.5,2.5s1.1,2.5,2.5,2.5h5v12.5
			c0,1.4,1.1,2.5,2.5,2.5s2.5-1.1,2.5-2.5V11.9h5C139.1,11.9,140.2,10.8,140.2,9.4z M78.7,10.5c0.2-0.3,0.3-0.7,0.3-1.1
			c0-1.4-1.1-2.5-2.5-2.5c-1.1,0-2,0.7-2.4,1.7L69,18.8L63.7,8.3l0,0c-0.4-0.8-1.2-1.4-2.2-1.4c-1.4,0-2.5,1.1-2.5,2.5
			c0,0.4,0.1,0.8,0.3,1.1l0,0l7.4,14.8c0.4,0.9,1.3,1.6,2.3,1.6c1,0,1.8-0.6,2.2-1.4l0,0L78.7,10.5L78.7,10.5z"/>
	</g>
</g>
<g>
	<defs>
		<path id="Ellisse_1" d="M15.5,1c-3.4,0-6.5,1.1-9,3H11c1.7,0,3,1.3,3,3s-1.3,3-3,3H1.8c-0.4,1-0.8,2-1,3h14.7c1.7,0,3,1.3,3,3
			s-1.3,3-3,3H0.9c0.2,1,0.5,2,1,3H20c1.7,0,3,1.3,3,3s-1.3,3-3,3H6.6c2.5,1.9,5.6,3,9,3c8.3,0,15-6.7,15-15S23.8,1,15.5,1z"/>
	</defs>
	<use xlink:href="#Ellisse_1"  overflow="visible" fill="#FDA032"/>
	<clipPath id="Ellisse_1_1_">
		<use xlink:href="#Ellisse_1"  overflow="visible"/>
	</clipPath>
</g>
</svg>
