<?xml version="1.0" encoding="utf-8"?>
<!-- Generator: Adobe Illustrator 16.0.0, SVG Export Plug-In . SVG Version: 6.00 Build 0)  -->
<!DOCTYPE svg PUBLIC "-//W3C//DTD SVG 1.1//EN" "http://www.w3.org/Graphics/SVG/1.1/DTD/svg11.dtd">
<svg version="1.1" id="Layer_1" xmlns="http://www.w3.org/2000/svg" xmlns:xlink="http://www.w3.org/1999/xlink" x="0px" y="0px"
	 width="62.458px" height="63.904px" viewBox="0 0 62.458 63.904" enable-background="new 0 0 62.458 63.904" xml:space="preserve">
<g>
	<g>
		<path id="Ellisse_1" fill="#FDA032" d="M30.811,0c-7.127,0-13.624,2.343-18.864,6.391h9.432c3.563,0,6.288,2.769,6.288,6.39
			c0,3.622-2.724,6.391-6.288,6.391H2.096c-0.838,2.13-1.677,4.26-2.096,6.39h30.811c3.563,0,6.288,2.771,6.288,6.391
			c0,3.623-2.725,6.391-6.288,6.391H0.209c0.419,2.13,1.048,4.261,2.095,6.391h37.938c3.561,0,6.287,2.769,6.287,6.389
			c0,3.623-2.727,6.392-6.287,6.392H12.156c5.241,4.047,11.737,6.391,18.864,6.391c17.397,0,31.438-14.272,31.438-31.953
			S48.208,0,30.811,0z"/>
	</g>
</g>
</svg>
